STARTFONT 2.1
FONT -Linotype-Palatino-Bold-R-Normal--12-120-72-72-P-67-ISO8859-1
SIZE 12 72 72
FONTBOUNDINGBOX 13 17 -1 -4

STARTPROPERTIES 21
FOUNDRY "Linotype"
FAMILY_NAME "Palatino"
WEIGHT_NAME "Bold"
SLANT "R"
SETWIDTH_NAME "Normal"
ADD_STYLE_NAME ""
PIXEL_SIZE 12
POINT_SIZE 120
RESOLUTION_X 72
RESOLUTION_Y 72
SPACING "P"
AVERAGE_WIDTH 67
CHARSET_REGISTRY "ISO8859"
CHARSET_ENCODING "1"
FULL_NAME "Palatino-Bold"
QUAD_WIDTH 6
X_HEIGHT 6
WEIGHT 10
DEFAULT_CHAR 32
FONT_DESCENT 4
FONT_ASCENT 13
ENDPROPERTIES

CHARS 190

STARTCHAR space
ENCODING 32
SWIDTH 250 0
DWIDTH 3 0
BBX 1 1 0 0
BITMAP
00
ENDCHAR

STARTCHAR exclam
ENCODING 33
SWIDTH 278 0
DWIDTH 3 0
BBX 2 9 1 0
BITMAP
C0
C0
C0
C0
C0
C0
00
C0
C0
ENDCHAR

STARTCHAR quotedbl
ENCODING 34
SWIDTH 402 0
DWIDTH 5 0
BBX 4 3 0 6
BITMAP
F0
F0
F0
ENDCHAR

STARTCHAR numbersign
ENCODING 35
SWIDTH 500 0
DWIDTH 7 0
BBX 6 9 0 0
BITMAP
38
38
38
FC
78
FC
70
70
70
ENDCHAR

STARTCHAR dollar
ENCODING 36
SWIDTH 500 0
DWIDTH 6 0
BBX 5 11 0 -1
BITMAP
20
78
F8
E0
E0
70
38
38
F8
F0
20
ENDCHAR

STARTCHAR percent
ENCODING 37
SWIDTH 889 0
DWIDTH 11 0
BBX 8 9 1 0
BITMAP
66
B4
DC
68
18
16
3B
2D
66
ENDCHAR

STARTCHAR ampersand
ENCODING 38
SWIDTH 833 0
DWIDTH 10 0
BBX 8 9 1 0
BITMAP
18
38
28
30
77
DA
CE
EE
7B
ENDCHAR

STARTCHAR quoteright
ENCODING 39
SWIDTH 278 0
DWIDTH 3 0
BBX 3 3 0 6
BITMAP
60
60
C0
ENDCHAR

STARTCHAR parenleft
ENCODING 40
SWIDTH 333 0
DWIDTH 4 0
BBX 3 12 0 -2
BITMAP
20
40
40
C0
C0
C0
C0
C0
C0
40
40
20
ENDCHAR

STARTCHAR parenright
ENCODING 41
SWIDTH 333 0
DWIDTH 4 0
BBX 3 12 1 -2
BITMAP
80
40
40
60
60
60
60
60
60
40
40
80
ENDCHAR

STARTCHAR asterisk
ENCODING 42
SWIDTH 444 0
DWIDTH 5 0
BBX 5 5 0 3
BITMAP
30
F0
78
F0
30
ENDCHAR

STARTCHAR plus
ENCODING 43
SWIDTH 606 0
DWIDTH 7 0
BBX 7 7 0 0
BITMAP
10
10
10
FE
10
10
10
ENDCHAR

STARTCHAR comma
ENCODING 44
SWIDTH 250 0
DWIDTH 3 0
BBX 3 3 0 -1
BITMAP
60
60
C0
ENDCHAR

STARTCHAR minus
ENCODING 45
SWIDTH 606 0
DWIDTH 7 0
BBX 6 1 0 3
BITMAP
FC
ENDCHAR

STARTCHAR period
ENCODING 46
SWIDTH 250 0
DWIDTH 3 0
BBX 2 2 1 0
BITMAP
C0
C0
ENDCHAR

STARTCHAR slash
ENCODING 47
SWIDTH 296 0
DWIDTH 4 0
BBX 4 9 0 0
BITMAP
10
10
30
20
60
40
C0
80
80
ENDCHAR

STARTCHAR zero
ENCODING 48
SWIDTH 500 0
DWIDTH 6 0
BBX 5 9 0 0
BITMAP
70
D8
D8
D8
D8
D8
D8
D8
70
ENDCHAR

STARTCHAR one
ENCODING 49
SWIDTH 500 0
DWIDTH 6 0
BBX 5 9 0 0
BITMAP
30
70
F0
30
30
30
30
30
78
ENDCHAR

STARTCHAR two
ENCODING 50
SWIDTH 500 0
DWIDTH 6 0
BBX 5 9 0 0
BITMAP
70
B8
98
18
10
20
40
F8
F8
ENDCHAR

STARTCHAR three
ENCODING 51
SWIDTH 500 0
DWIDTH 6 0
BBX 5 9 0 0
BITMAP
70
F8
98
38
70
18
98
B8
70
ENDCHAR

STARTCHAR four
ENCODING 52
SWIDTH 500 0
DWIDTH 6 0
BBX 5 9 0 0
BITMAP
10
30
30
70
70
F0
F8
30
78
ENDCHAR

STARTCHAR five
ENCODING 53
SWIDTH 500 0
DWIDTH 6 0
BBX 5 9 0 0
BITMAP
F8
F8
80
F0
D8
18
18
B8
F0
ENDCHAR

STARTCHAR six
ENCODING 54
SWIDTH 500 0
DWIDTH 6 0
BBX 5 9 0 0
BITMAP
30
60
60
F0
D8
D8
D8
D8
70
ENDCHAR

STARTCHAR seven
ENCODING 55
SWIDTH 500 0
DWIDTH 6 0
BBX 5 9 0 0
BITMAP
F8
F8
90
10
30
20
60
60
E0
ENDCHAR

STARTCHAR eight
ENCODING 56
SWIDTH 500 0
DWIDTH 6 0
BBX 5 9 0 0
BITMAP
70
D8
D8
70
70
D8
D8
D8
70
ENDCHAR

STARTCHAR nine
ENCODING 57
SWIDTH 500 0
DWIDTH 6 0
BBX 5 9 0 0
BITMAP
70
D8
D8
D8
D8
78
30
30
60
ENDCHAR

STARTCHAR colon
ENCODING 58
SWIDTH 250 0
DWIDTH 3 0
BBX 2 6 1 0
BITMAP
C0
C0
00
00
C0
C0
ENDCHAR

STARTCHAR semicolon
ENCODING 59
SWIDTH 250 0
DWIDTH 3 0
BBX 3 7 0 -1
BITMAP
60
60
00
00
60
60
C0
ENDCHAR

STARTCHAR less
ENCODING 60
SWIDTH 606 0
DWIDTH 7 0
BBX 7 7 0 0
BITMAP
06
18
60
80
60
18
06
ENDCHAR

STARTCHAR equal
ENCODING 61
SWIDTH 606 0
DWIDTH 7 0
BBX 6 4 0 2
BITMAP
FC
00
00
FC
ENDCHAR

STARTCHAR greater
ENCODING 62
SWIDTH 606 0
DWIDTH 7 0
BBX 7 7 0 0
BITMAP
C0
30
0C
02
0C
30
C0
ENDCHAR

STARTCHAR question
ENCODING 63
SWIDTH 444 0
DWIDTH 5 0
BBX 4 9 1 0
BITMAP
E0
B0
30
30
60
60
00
60
60
ENDCHAR

STARTCHAR at
ENCODING 64
SWIDTH 747 0
DWIDTH 9 0
BBX 8 9 0 0
BITMAP
3C
66
DF
B5
AD
AA
DE
61
3E
ENDCHAR

STARTCHAR A
ENCODING 65
SWIDTH 778 0
DWIDTH 10 0
BBX 10 9 0 0
BITMAP
0C00
0C00
1E00
1600
2300
3F00
4180
4180
E3C0
ENDCHAR

STARTCHAR B
ENCODING 66
SWIDTH 667 0
DWIDTH 9 0
BBX 8 9 0 0
BITMAP
FC
66
66
6C
7E
63
63
67
FE
ENDCHAR

STARTCHAR C
ENCODING 67
SWIDTH 722 0
DWIDTH 9 0
BBX 8 9 0 0
BITMAP
3F
63
C0
C0
C0
C0
C0
61
3E
ENDCHAR

STARTCHAR D
ENCODING 68
SWIDTH 833 0
DWIDTH 10 0
BBX 9 9 0 0
BITMAP
FE00
6300
6180
6180
6180
6180
6180
6300
FE00
ENDCHAR

STARTCHAR E
ENCODING 69
SWIDTH 611 0
DWIDTH 8 0
BBX 7 9 0 0
BITMAP
FE
62
60
64
7C
64
60
62
FE
ENDCHAR

STARTCHAR F
ENCODING 70
SWIDTH 556 0
DWIDTH 8 0
BBX 7 9 0 0
BITMAP
FE
62
60
64
7C
64
60
60
F0
ENDCHAR

STARTCHAR G
ENCODING 71
SWIDTH 833 0
DWIDTH 9 0
BBX 9 9 0 0
BITMAP
3F00
6300
C000
C000
C000
C780
E300
7300
3E00
ENDCHAR

STARTCHAR H
ENCODING 72
SWIDTH 833 0
DWIDTH 10 0
BBX 9 9 0 0
BITMAP
F780
6300
6300
6300
7F00
6300
6300
6300
F780
ENDCHAR

STARTCHAR I
ENCODING 73
SWIDTH 389 0
DWIDTH 4 0
BBX 4 9 0 0
BITMAP
F0
60
60
60
60
60
60
60
F0
ENDCHAR

STARTCHAR J
ENCODING 74
SWIDTH 389 0
DWIDTH 4 0
BBX 4 11 0 -2
BITMAP
F0
60
60
60
60
60
60
60
60
60
C0
ENDCHAR

STARTCHAR K
ENCODING 75
SWIDTH 778 0
DWIDTH 9 0
BBX 9 9 0 0
BITMAP
F300
6600
6C00
7800
7800
7C00
6E00
6700
E380
ENDCHAR

STARTCHAR L
ENCODING 76
SWIDTH 611 0
DWIDTH 7 0
BBX 6 9 0 0
BITMAP
F0
60
60
60
60
60
60
64
FC
ENDCHAR

STARTCHAR M
ENCODING 77
SWIDTH 1000 0
DWIDTH 12 0
BBX 12 9 0 0
BITMAP
E070
70E0
70E0
5960
5960
4E60
4E60
4460
E4F0
ENDCHAR

STARTCHAR N
ENCODING 78
SWIDTH 833 0
DWIDTH 11 0
BBX 10 9 0 0
BITMAP
E1C0
7080
7880
5C80
4E80
4780
4380
4180
E080
ENDCHAR

STARTCHAR O
ENCODING 79
SWIDTH 833 0
DWIDTH 10 0
BBX 9 9 0 0
BITMAP
3F00
6380
C180
C180
C180
C180
C180
E300
7E00
ENDCHAR

STARTCHAR P
ENCODING 80
SWIDTH 611 0
DWIDTH 8 0
BBX 7 9 0 0
BITMAP
FC
6E
66
66
6C
60
60
60
F0
ENDCHAR

STARTCHAR Q
ENCODING 81
SWIDTH 833 0
DWIDTH 10 0
BBX 10 11 1 -2
BITMAP
3F00
6380
C180
C180
C180
C180
C180
E300
7E00
1CC0
3780
ENDCHAR

STARTCHAR R
ENCODING 82
SWIDTH 722 0
DWIDTH 8 0
BBX 8 9 0 0
BITMAP
FC
66
66
6C
78
6C
6C
66
F7
ENDCHAR

STARTCHAR S
ENCODING 83
SWIDTH 611 0
DWIDTH 7 0
BBX 6 9 0 0
BITMAP
7C
CC
C0
E0
78
1C
0C
CC
F8
ENDCHAR

STARTCHAR T
ENCODING 84
SWIDTH 667 0
DWIDTH 8 0
BBX 8 9 0 0
BITMAP
FF
99
18
18
18
18
18
18
3C
ENDCHAR

STARTCHAR U
ENCODING 85
SWIDTH 778 0
DWIDTH 9 0
BBX 9 9 0 0
BITMAP
F380
6100
6100
6100
6100
6100
6100
7300
3E00
ENDCHAR

STARTCHAR V
ENCODING 86
SWIDTH 778 0
DWIDTH 9 0
BBX 9 9 0 0
BITMAP
F380
6100
7100
3200
3A00
1E00
1C00
0C00
0800
ENDCHAR

STARTCHAR W
ENCODING 87
SWIDTH 1000 0
DWIDTH 12 0
BBX 13 9 -1 0
BITMAP
F338
6310
6310
35A0
35A0
35A0
18C0
18C0
18C0
ENDCHAR

STARTCHAR X
ENCODING 88
SWIDTH 667 0
DWIDTH 8 0
BBX 8 9 0 0
BITMAP
E3
76
34
3C
18
3C
2C
6E
C7
ENDCHAR

STARTCHAR Y
ENCODING 89
SWIDTH 667 0
DWIDTH 8 0
BBX 8 9 0 0
BITMAP
E3
72
34
3C
18
18
18
18
3C
ENDCHAR

STARTCHAR Z
ENCODING 90
SWIDTH 667 0
DWIDTH 8 0
BBX 7 9 0 0
BITMAP
FE
C6
0C
1C
38
70
60
C6
FE
ENDCHAR

STARTCHAR bracketleft
ENCODING 91
SWIDTH 333 0
DWIDTH 4 0
BBX 3 10 0 -1
BITMAP
E0
C0
C0
C0
C0
C0
C0
C0
C0
E0
ENDCHAR

STARTCHAR backslash
ENCODING 92
SWIDTH 606 0
DWIDTH 7 0
BBX 5 9 1 0
BITMAP
80
C0
40
60
20
30
10
18
08
ENDCHAR

STARTCHAR bracketright
ENCODING 93
SWIDTH 333 0
DWIDTH 4 0
BBX 3 10 0 -1
BITMAP
E0
60
60
60
60
60
60
60
60
E0
ENDCHAR

STARTCHAR asciicircum
ENCODING 94
SWIDTH 606 0
DWIDTH 7 0
BBX 6 6 0 3
BITMAP
30
30
78
78
CC
CC
ENDCHAR

STARTCHAR underscore
ENCODING 95
SWIDTH 500 0
DWIDTH 6 0
BBX 6 1 0 -1
BITMAP
FC
ENDCHAR

STARTCHAR quoteleft
ENCODING 96
SWIDTH 278 0
DWIDTH 3 0
BBX 3 3 0 6
BITMAP
60
C0
C0
ENDCHAR

STARTCHAR a
ENCODING 97
SWIDTH 500 0
DWIDTH 6 0
BBX 6 6 0 0
BITMAP
70
D8
78
D8
D8
FC
ENDCHAR

STARTCHAR b
ENCODING 98
SWIDTH 611 0
DWIDTH 6 0
BBX 7 9 -1 0
BITMAP
E0
60
60
6C
7E
66
66
76
7C
ENDCHAR

STARTCHAR c
ENCODING 99
SWIDTH 444 0
DWIDTH 5 0
BBX 5 6 0 0
BITMAP
78
D8
C0
C0
E8
78
ENDCHAR

STARTCHAR d
ENCODING 100
SWIDTH 611 0
DWIDTH 7 0
BBX 7 9 0 0
BITMAP
1C
0C
0C
7C
DC
CC
CC
FC
6E
ENDCHAR

STARTCHAR e
ENCODING 101
SWIDTH 500 0
DWIDTH 5 0
BBX 5 6 0 0
BITMAP
70
D8
F8
C0
E8
78
ENDCHAR

STARTCHAR f
ENCODING 102
SWIDTH 389 0
DWIDTH 5 0
BBX 5 9 0 0
BITMAP
38
60
60
F8
60
60
60
60
F0
ENDCHAR

STARTCHAR g
ENCODING 103
SWIDTH 556 0
DWIDTH 7 0
BBX 7 9 0 -3
BITMAP
7E
CC
CC
78
C0
7E
C6
C6
7C
ENDCHAR

STARTCHAR h
ENCODING 104
SWIDTH 611 0
DWIDTH 8 0
BBX 8 9 0 0
BITMAP
E0
60
60
6C
7E
66
66
66
F7
ENDCHAR

STARTCHAR i
ENCODING 105
SWIDTH 333 0
DWIDTH 4 0
BBX 4 9 0 0
BITMAP
60
60
00
E0
60
60
60
60
F0
ENDCHAR

STARTCHAR j
ENCODING 106
SWIDTH 333 0
DWIDTH 4 0
BBX 3 12 0 -3
BITMAP
60
60
00
E0
60
60
60
60
60
60
60
C0
ENDCHAR

STARTCHAR k
ENCODING 107
SWIDTH 611 0
DWIDTH 7 0
BBX 7 9 0 0
BITMAP
E0
60
60
6C
78
70
78
6C
FE
ENDCHAR

STARTCHAR l
ENCODING 108
SWIDTH 333 0
DWIDTH 4 0
BBX 4 9 0 0
BITMAP
E0
60
60
60
60
60
60
60
F0
ENDCHAR

STARTCHAR m
ENCODING 109
SWIDTH 889 0
DWIDTH 10 0
BBX 10 6 0 0
BITMAP
FF00
6D80
6D80
6D80
6D80
FFC0
ENDCHAR

STARTCHAR n
ENCODING 110
SWIDTH 611 0
DWIDTH 8 0
BBX 8 6 0 0
BITMAP
EC
7E
66
66
66
F7
ENDCHAR

STARTCHAR o
ENCODING 111
SWIDTH 556 0
DWIDTH 6 0
BBX 6 6 0 0
BITMAP
78
DC
CC
CC
EC
78
ENDCHAR

STARTCHAR p
ENCODING 112
SWIDTH 611 0
DWIDTH 7 0
BBX 7 9 0 -3
BITMAP
EC
7E
66
66
66
7C
60
60
F8
ENDCHAR

STARTCHAR q
ENCODING 113
SWIDTH 611 0
DWIDTH 7 0
BBX 7 9 0 -3
BITMAP
7C
DC
CC
CC
FC
6C
0C
0C
1E
ENDCHAR

STARTCHAR r
ENCODING 114
SWIDTH 389 0
DWIDTH 6 0
BBX 6 6 0 0
BITMAP
FC
70
60
60
60
F0
ENDCHAR

STARTCHAR s
ENCODING 115
SWIDTH 444 0
DWIDTH 5 0
BBX 5 6 0 0
BITMAP
78
D8
E0
38
D8
F0
ENDCHAR

STARTCHAR t
ENCODING 116
SWIDTH 333 0
DWIDTH 4 0
BBX 4 8 0 0
BITMAP
60
60
F0
60
60
60
60
30
ENDCHAR

STARTCHAR u
ENCODING 117
SWIDTH 611 0
DWIDTH 8 0
BBX 8 6 0 0
BITMAP
EE
66
66
66
7E
37
ENDCHAR

STARTCHAR v
ENCODING 118
SWIDTH 556 0
DWIDTH 8 0
BBX 8 6 0 0
BITMAP
FF
66
64
3C
38
18
ENDCHAR

STARTCHAR w
ENCODING 119
SWIDTH 833 0
DWIDTH 10 0
BBX 10 6 0 0
BITMAP
FFC0
6D80
6D80
7F00
3300
3300
ENDCHAR

STARTCHAR x
ENCODING 120
SWIDTH 500 0
DWIDTH 7 0
BBX 7 6 0 0
BITMAP
EE
6C
38
38
6C
EE
ENDCHAR

STARTCHAR y
ENCODING 121
SWIDTH 556 0
DWIDTH 7 0
BBX 8 9 -1 -3
BITMAP
FF
66
34
3C
18
18
30
30
E0
ENDCHAR

STARTCHAR z
ENCODING 122
SWIDTH 500 0
DWIDTH 6 0
BBX 5 6 0 0
BITMAP
F8
B8
30
60
E8
F8
ENDCHAR

STARTCHAR braceleft
ENCODING 123
SWIDTH 310 0
DWIDTH 4 0
BBX 4 11 0 -2
BITMAP
30
60
60
60
60
C0
60
60
60
60
30
ENDCHAR

STARTCHAR bar
ENCODING 124
SWIDTH 606 0
DWIDTH 7 0
BBX 2 9 2 0
BITMAP
C0
C0
C0
C0
C0
C0
C0
C0
C0
ENDCHAR

STARTCHAR braceright
ENCODING 125
SWIDTH 310 0
DWIDTH 4 0
BBX 4 11 0 -2
BITMAP
C0
60
60
60
60
30
60
60
60
60
C0
ENDCHAR

STARTCHAR asciitilde
ENCODING 126
SWIDTH 606 0
DWIDTH 7 0
BBX 7 2 0 2
BITMAP
76
DC
ENDCHAR

STARTCHAR exclamdown
ENCODING 161
SWIDTH 278 0
DWIDTH 3 0
BBX 2 9 0 -3
BITMAP
C0
C0
00
C0
C0
C0
C0
C0
C0
ENDCHAR

STARTCHAR cent
ENCODING 162
SWIDTH 500 0
DWIDTH 6 0
BBX 5 8 0 -1
BITMAP
20
78
E8
A0
A0
E0
78
20
ENDCHAR

STARTCHAR sterling
ENCODING 163
SWIDTH 500 0
DWIDTH 6 0
BBX 6 9 0 0
BITMAP
1C
34
60
60
F8
60
60
64
FC
ENDCHAR

STARTCHAR currency
ENCODING 164
SWIDTH 500 0
DWIDTH 7 0
BBX 6 7 0 1
BITMAP
B4
78
CC
CC
CC
78
B4
ENDCHAR

STARTCHAR yen
ENCODING 165
SWIDTH 500 0
DWIDTH 6 0
BBX 6 9 0 0
BITMAP
C4
CC
48
78
78
30
78
30
78
ENDCHAR

STARTCHAR brokenbar
ENCODING 166
SWIDTH 606 0
DWIDTH 7 0
BBX 2 9 2 0
BITMAP
C0
C0
C0
C0
00
C0
C0
C0
C0
ENDCHAR

STARTCHAR section
ENCODING 167
SWIDTH 500 0
DWIDTH 6 0
BBX 5 11 0 -2
BITMAP
78
D8
C8
60
F0
D8
78
30
98
D8
F0
ENDCHAR

STARTCHAR dieresis
ENCODING 168
SWIDTH 333 0
DWIDTH 4 0
BBX 4 2 0 7
BITMAP
90
90
ENDCHAR

STARTCHAR copyright
ENCODING 169
SWIDTH 747 0
DWIDTH 9 0
BBX 9 9 0 0
BITMAP
3E00
4100
9C80
A480
A080
B080
9E80
4100
3E00
ENDCHAR

STARTCHAR ordfeminine
ENCODING 170
SWIDTH 438 0
DWIDTH 5 0
BBX 3 6 1 3
BITMAP
E0
60
A0
E0
00
E0
ENDCHAR

STARTCHAR guillemotleft
ENCODING 171
SWIDTH 500 0
DWIDTH 6 0
BBX 5 5 0 1
BITMAP
28
50
A0
50
28
ENDCHAR

STARTCHAR logicalnot
ENCODING 172
SWIDTH 606 0
DWIDTH 7 0
BBX 6 3 0 1
BITMAP
FC
04
04
ENDCHAR

STARTCHAR hyphen
ENCODING 173
SWIDTH 333 0
DWIDTH 4 0
BBX 4 1 0 3
BITMAP
F0
ENDCHAR

STARTCHAR registered
ENCODING 174
SWIDTH 747 0
DWIDTH 9 0
BBX 9 9 0 0
BITMAP
3E00
4100
BC80
9280
9C80
9680
BA80
4100
3E00
ENDCHAR

STARTCHAR macron
ENCODING 175
SWIDTH 333 0
DWIDTH 4 0
BBX 4 1 0 7
BITMAP
F0
ENDCHAR

STARTCHAR degree
ENCODING 176
SWIDTH 400 0
DWIDTH 6 0
BBX 4 3 1 6
BITMAP
60
90
60
ENDCHAR

STARTCHAR plusminus
ENCODING 177
SWIDTH 606 0
DWIDTH 7 0
BBX 7 8 0 0
BITMAP
10
10
10
FE
10
10
10
FE
ENDCHAR

STARTCHAR twosuperior
ENCODING 178
SWIDTH 300 0
DWIDTH 4 0
BBX 3 6 0 3
BITMAP
C0
A0
20
40
80
E0
ENDCHAR

STARTCHAR threesuperior
ENCODING 179
SWIDTH 300 0
DWIDTH 4 0
BBX 3 6 0 3
BITMAP
E0
A0
60
20
A0
C0
ENDCHAR

STARTCHAR acute
ENCODING 180
SWIDTH 333 0
DWIDTH 4 0
BBX 3 2 0 7
BITMAP
60
80
ENDCHAR

STARTCHAR mu
ENCODING 181
SWIDTH 611 0
DWIDTH 7 0
BBX 7 9 0 -3
BITMAP
EC
6C
6C
6C
6C
7E
40
60
60
ENDCHAR

STARTCHAR paragraph
ENCODING 182
SWIDTH 641 0
DWIDTH 8 0
BBX 7 11 0 -2
BITMAP
7E
D4
D4
D4
D4
74
14
14
14
14
3E
ENDCHAR

STARTCHAR periodcentered
ENCODING 183
SWIDTH 250 0
DWIDTH 6 0
BBX 1 2 2 3
BITMAP
80
80
ENDCHAR

STARTCHAR cedilla
ENCODING 184
SWIDTH 333 0
DWIDTH 4 0
BBX 3 3 0 -2
BITMAP
40
20
E0
ENDCHAR

STARTCHAR onesuperior
ENCODING 185
SWIDTH 300 0
DWIDTH 4 0
BBX 3 6 0 3
BITMAP
C0
40
40
40
40
E0
ENDCHAR

STARTCHAR ordmasculine
ENCODING 186
SWIDTH 488 0
DWIDTH 6 0
BBX 4 6 1 3
BITMAP
60
90
90
60
00
F0
ENDCHAR

STARTCHAR guillemotright
ENCODING 187
SWIDTH 500 0
DWIDTH 6 0
BBX 5 5 0 1
BITMAP
A0
50
28
50
A0
ENDCHAR

STARTCHAR onequarter
ENCODING 188
SWIDTH 750 0
DWIDTH 9 0
BBX 9 9 0 0
BITMAP
C200
4200
4400
4500
4B00
EB00
1780
1100
2380
ENDCHAR

STARTCHAR onehalf
ENCODING 189
SWIDTH 750 0
DWIDTH 9 0
BBX 9 9 0 0
BITMAP
C200
4200
4400
4700
4A80
E880
1100
1200
2380
ENDCHAR

STARTCHAR threequarters
ENCODING 190
SWIDTH 750 0
DWIDTH 9 0
BBX 9 9 0 0
BITMAP
E200
A200
4400
2500
AB00
CB00
1780
1100
2380
ENDCHAR

STARTCHAR questiondown
ENCODING 191
SWIDTH 444 0
DWIDTH 5 0
BBX 4 9 0 -3
BITMAP
60
40
00
20
60
C0
D0
F0
70
ENDCHAR

STARTCHAR Agrave
ENCODING 192
SWIDTH 778 0
DWIDTH 10 0
BBX 10 12 0 0
BITMAP
1800
0400
0000
0C00
0C00
1E00
1600
2300
3F00
4180
4180
E3C0
ENDCHAR

STARTCHAR Aacute
ENCODING 193
SWIDTH 778 0
DWIDTH 10 0
BBX 10 12 0 0
BITMAP
0600
0800
0000
0C00
0C00
1E00
1600
2300
3F00
4180
4180
E3C0
ENDCHAR

STARTCHAR Acircumflex
ENCODING 194
SWIDTH 778 0
DWIDTH 10 0
BBX 10 12 0 0
BITMAP
0C00
1200
0000
0C00
0C00
1E00
1600
2300
3F00
4180
4180
E3C0
ENDCHAR

STARTCHAR Atilde
ENCODING 195
SWIDTH 778 0
DWIDTH 10 0
BBX 10 12 0 0
BITMAP
1A00
1600
0000
0C00
0C00
1E00
1600
2300
3F00
4180
4180
E3C0
ENDCHAR

STARTCHAR Adieresis
ENCODING 196
SWIDTH 778 0
DWIDTH 10 0
BBX 10 12 0 0
BITMAP
1200
1200
0000
0C00
0C00
1E00
1600
2300
3F00
4180
4180
E3C0
ENDCHAR

STARTCHAR Aring
ENCODING 197
SWIDTH 778 0
DWIDTH 10 0
BBX 10 13 0 0
BITMAP
0C00
1200
0C00
0000
0C00
0C00
1E00
1600
2300
3F00
4180
4180
E3C0
ENDCHAR

STARTCHAR AE
ENCODING 198
SWIDTH 1000 0
DWIDTH 13 0
BBX 12 9 0 0
BITMAP
0FF0
0710
0B00
0B20
13E0
1F20
2300
4310
E7F0
ENDCHAR

STARTCHAR Ccedilla
ENCODING 199
SWIDTH 722 0
DWIDTH 9 0
BBX 8 12 0 -3
BITMAP
3F
63
C0
C0
C0
C0
C0
61
3E
08
04
1C
ENDCHAR

STARTCHAR Egrave
ENCODING 200
SWIDTH 611 0
DWIDTH 8 0
BBX 7 12 0 0
BITMAP
30
08
00
FE
62
60
64
7C
64
60
62
FE
ENDCHAR

STARTCHAR Eacute
ENCODING 201
SWIDTH 611 0
DWIDTH 8 0
BBX 7 12 0 0
BITMAP
18
20
00
FE
62
60
64
7C
64
60
62
FE
ENDCHAR

STARTCHAR Ecircumflex
ENCODING 202
SWIDTH 611 0
DWIDTH 8 0
BBX 7 12 0 0
BITMAP
18
24
00
FE
62
60
64
7C
64
60
62
FE
ENDCHAR

STARTCHAR Edieresis
ENCODING 203
SWIDTH 611 0
DWIDTH 8 0
BBX 7 12 0 0
BITMAP
24
24
00
FE
62
60
64
7C
64
60
62
FE
ENDCHAR

STARTCHAR Igrave
ENCODING 204
SWIDTH 389 0
DWIDTH 4 0
BBX 4 12 0 0
BITMAP
C0
20
00
F0
60
60
60
60
60
60
60
F0
ENDCHAR

STARTCHAR Iacute
ENCODING 205
SWIDTH 389 0
DWIDTH 4 0
BBX 4 12 0 0
BITMAP
30
40
00
F0
60
60
60
60
60
60
60
F0
ENDCHAR

STARTCHAR Icircumflex
ENCODING 206
SWIDTH 389 0
DWIDTH 4 0
BBX 4 12 0 0
BITMAP
60
90
00
F0
60
60
60
60
60
60
60
F0
ENDCHAR

STARTCHAR Idieresis
ENCODING 207
SWIDTH 389 0
DWIDTH 4 0
BBX 4 12 0 0
BITMAP
90
90
00
F0
60
60
60
60
60
60
60
F0
ENDCHAR

STARTCHAR Eth
ENCODING 208
SWIDTH 833 0
DWIDTH 9 0
BBX 9 9 0 0
BITMAP
FE00
6300
6180
6180
F980
6180
6180
6300
FE00
ENDCHAR

STARTCHAR Ntilde
ENCODING 209
SWIDTH 833 0
DWIDTH 11 0
BBX 10 12 0 0
BITMAP
1A00
1600
0000
E1C0
7080
7880
5C80
4E80
4780
4380
4180
E080
ENDCHAR

STARTCHAR Ograve
ENCODING 210
SWIDTH 833 0
DWIDTH 10 0
BBX 9 12 0 0
BITMAP
1800
0400
0000
3F00
6380
C180
C180
C180
C180
C180
E300
7E00
ENDCHAR

STARTCHAR Oacute
ENCODING 211
SWIDTH 833 0
DWIDTH 10 0
BBX 9 12 0 0
BITMAP
0C00
1000
0000
3F00
6380
C180
C180
C180
C180
C180
E300
7E00
ENDCHAR

STARTCHAR Ocircumflex
ENCODING 212
SWIDTH 833 0
DWIDTH 10 0
BBX 9 12 0 0
BITMAP
1800
2400
0000
3F00
6380
C180
C180
C180
C180
C180
E300
7E00
ENDCHAR

STARTCHAR Otilde
ENCODING 213
SWIDTH 833 0
DWIDTH 10 0
BBX 9 12 0 0
BITMAP
3400
2C00
0000
3F00
6380
C180
C180
C180
C180
C180
E300
7E00
ENDCHAR

STARTCHAR Odieresis
ENCODING 214
SWIDTH 833 0
DWIDTH 10 0
BBX 9 12 0 0
BITMAP
2400
2400
0000
3F00
6380
C180
C180
C180
C180
C180
E300
7E00
ENDCHAR

STARTCHAR multiply
ENCODING 215
SWIDTH 606 0
DWIDTH 7 0
BBX 7 7 0 0
BITMAP
82
44
28
10
28
44
82
ENDCHAR

STARTCHAR Oslash
ENCODING 216
SWIDTH 833 0
DWIDTH 10 0
BBX 9 9 0 0
BITMAP
3E80
6100
C380
C580
C980
D180
E180
6300
BE00
ENDCHAR

STARTCHAR Ugrave
ENCODING 217
SWIDTH 778 0
DWIDTH 10 0
BBX 9 12 0 0
BITMAP
1800
0400
0000
F380
6100
6100
6100
6100
6100
6100
7300
3E00
ENDCHAR

STARTCHAR Uacute
ENCODING 218
SWIDTH 778 0
DWIDTH 10 0
BBX 9 12 0 0
BITMAP
0C00
1000
0000
F380
6100
6100
6100
6100
6100
6100
7300
3E00
ENDCHAR

STARTCHAR Ucircumflex
ENCODING 219
SWIDTH 778 0
DWIDTH 10 0
BBX 9 12 0 0
BITMAP
0C00
1200
0000
F380
6100
6100
6100
6100
6100
6100
7300
3E00
ENDCHAR

STARTCHAR Udieresis
ENCODING 220
SWIDTH 778 0
DWIDTH 10 0
BBX 9 12 0 0
BITMAP
1200
1200
0000
F380
6100
6100
6100
6100
6100
6100
7300
3E00
ENDCHAR

STARTCHAR Yacute
ENCODING 221
SWIDTH 667 0
DWIDTH 8 0
BBX 8 12 0 0
BITMAP
0C
10
00
E3
62
34
3C
18
18
18
18
3C
ENDCHAR

STARTCHAR Thorn
ENCODING 222
SWIDTH 611 0
DWIDTH 7 0
BBX 7 9 0 0
BITMAP
F0
60
7C
66
66
66
7C
60
F0
ENDCHAR

STARTCHAR germandbls
ENCODING 223
SWIDTH 611 0
DWIDTH 8 0
BBX 7 9 0 0
BITMAP
3C
66
66
EE
6C
6C
66
76
FC
ENDCHAR

STARTCHAR agrave
ENCODING 224
SWIDTH 500 0
DWIDTH 6 0
BBX 6 9 0 0
BITMAP
60
10
00
70
D8
78
D8
D8
FC
ENDCHAR

STARTCHAR aacute
ENCODING 225
SWIDTH 500 0
DWIDTH 6 0
BBX 6 9 0 0
BITMAP
30
40
00
70
D8
78
D8
D8
FC
ENDCHAR

STARTCHAR acircumflex
ENCODING 226
SWIDTH 500 0
DWIDTH 6 0
BBX 6 9 0 0
BITMAP
30
48
00
70
D8
78
D8
D8
FC
ENDCHAR

STARTCHAR atilde
ENCODING 227
SWIDTH 500 0
DWIDTH 6 0
BBX 6 9 0 0
BITMAP
68
58
00
70
D8
78
D8
D8
FC
ENDCHAR

STARTCHAR adieresis
ENCODING 228
SWIDTH 500 0
DWIDTH 6 0
BBX 6 9 0 0
BITMAP
48
48
00
70
D8
78
D8
D8
FC
ENDCHAR

STARTCHAR aring
ENCODING 229
SWIDTH 500 0
DWIDTH 6 0
BBX 6 10 0 0
BITMAP
30
48
30
00
70
D8
78
D8
D8
FC
ENDCHAR

STARTCHAR ae
ENCODING 230
SWIDTH 778 0
DWIDTH 9 0
BBX 8 6 0 0
BITMAP
7E
DB
7F
D8
DD
F7
ENDCHAR

STARTCHAR ccedilla
ENCODING 231
SWIDTH 444 0
DWIDTH 5 0
BBX 5 9 0 -3
BITMAP
78
D8
C0
C0
E8
78
20
10
70
ENDCHAR

STARTCHAR egrave
ENCODING 232
SWIDTH 500 0
DWIDTH 5 0
BBX 5 9 0 0
BITMAP
60
10
00
70
D8
F8
C0
E8
78
ENDCHAR

STARTCHAR eacute
ENCODING 233
SWIDTH 500 0
DWIDTH 5 0
BBX 5 9 0 0
BITMAP
30
40
00
70
D8
F8
C0
E8
78
ENDCHAR

STARTCHAR ecircumflex
ENCODING 234
SWIDTH 500 0
DWIDTH 5 0
BBX 5 9 0 0
BITMAP
30
48
00
70
D8
F8
C0
E8
78
ENDCHAR

STARTCHAR edieresis
ENCODING 235
SWIDTH 500 0
DWIDTH 5 0
BBX 5 9 0 0
BITMAP
48
48
00
70
D8
F8
C0
E8
78
ENDCHAR

STARTCHAR igrave
ENCODING 236
SWIDTH 333 0
DWIDTH 4 0
BBX 4 9 0 0
BITMAP
C0
20
00
E0
60
60
60
60
F0
ENDCHAR

STARTCHAR iacute
ENCODING 237
SWIDTH 333 0
DWIDTH 4 0
BBX 4 9 0 0
BITMAP
30
40
00
E0
60
60
60
60
F0
ENDCHAR

STARTCHAR icircumflex
ENCODING 238
SWIDTH 333 0
DWIDTH 4 0
BBX 4 9 0 0
BITMAP
60
90
00
E0
60
60
60
60
F0
ENDCHAR

STARTCHAR idieresis
ENCODING 239
SWIDTH 333 0
DWIDTH 4 0
BBX 4 9 0 0
BITMAP
90
90
00
E0
60
60
60
60
F0
ENDCHAR

STARTCHAR eth
ENCODING 240
SWIDTH 556 0
DWIDTH 7 0
BBX 6 9 0 0
BITMAP
E4
38
D8
7C
CC
CC
CC
EC
78
ENDCHAR

STARTCHAR ntilde
ENCODING 241
SWIDTH 611 0
DWIDTH 8 0
BBX 8 9 0 0
BITMAP
68
58
00
EC
7E
66
66
66
F7
ENDCHAR

STARTCHAR ograve
ENCODING 242
SWIDTH 556 0
DWIDTH 6 0
BBX 6 9 0 0
BITMAP
60
10
00
78
DC
CC
CC
EC
78
ENDCHAR

STARTCHAR oacute
ENCODING 243
SWIDTH 556 0
DWIDTH 6 0
BBX 6 9 0 0
BITMAP
18
20
00
78
DC
CC
CC
EC
78
ENDCHAR

STARTCHAR ocircumflex
ENCODING 244
SWIDTH 556 0
DWIDTH 6 0
BBX 6 9 0 0
BITMAP
30
48
00
78
DC
CC
CC
EC
78
ENDCHAR

STARTCHAR otilde
ENCODING 245
SWIDTH 556 0
DWIDTH 6 0
BBX 6 9 0 0
BITMAP
68
58
00
78
DC
CC
CC
EC
78
ENDCHAR

STARTCHAR odieresis
ENCODING 246
SWIDTH 556 0
DWIDTH 6 0
BBX 6 9 0 0
BITMAP
48
48
00
78
DC
CC
CC
EC
78
ENDCHAR

STARTCHAR divide
ENCODING 247
SWIDTH 606 0
DWIDTH 7 0
BBX 7 7 0 0
BITMAP
10
10
00
FE
00
10
10
ENDCHAR

STARTCHAR oslash
ENCODING 248
SWIDTH 556 0
DWIDTH 6 0
BBX 6 6 0 0
BITMAP
7C
CC
DC
EC
CC
F8
ENDCHAR

STARTCHAR ugrave
ENCODING 249
SWIDTH 611 0
DWIDTH 8 0
BBX 8 9 0 0
BITMAP
30
08
00
EE
66
66
66
7E
37
ENDCHAR

STARTCHAR uacute
ENCODING 250
SWIDTH 611 0
DWIDTH 8 0
BBX 8 9 0 0
BITMAP
18
20
00
EE
66
66
66
7E
37
ENDCHAR

STARTCHAR ucircumflex
ENCODING 251
SWIDTH 611 0
DWIDTH 8 0
BBX 8 9 0 0
BITMAP
18
24
00
EE
66
66
66
7E
37
ENDCHAR

STARTCHAR udieresis
ENCODING 252
SWIDTH 611 0
DWIDTH 8 0
BBX 8 9 0 0
BITMAP
24
24
00
EE
66
66
66
7E
37
ENDCHAR

STARTCHAR yacute
ENCODING 253
SWIDTH 556 0
DWIDTH 7 0
BBX 8 12 -1 -3
BITMAP
0C
10
00
FF
66
64
3C
38
18
30
30
E0
ENDCHAR

STARTCHAR thorn
ENCODING 254
SWIDTH 611 0
DWIDTH 7 0
BBX 7 12 -1 -3
BITMAP
E0
60
60
7C
6E
66
66
6C
78
60
60
F0
ENDCHAR

STARTCHAR ydieresis
ENCODING 255
SWIDTH 556 0
DWIDTH 7 0
BBX 8 12 -1 -3
BITMAP
24
24
00
FF
66
64
3C
38
18
30
30
E0
ENDCHAR
ENDFONT
